<mxfile host="app.diagrams.net" agent="Mozilla/5.0 (Windows NT 10.0; Win64; x64) AppleWebKit/537.36 (KHTML, like Gecko) Chrome/131.0.0.0 Safari/537.36" version="24.9.1">
  <diagram name="Página-1" id="S3c9iLYVORMwl_6mwujc">
    <mxGraphModel dx="2049" dy="1177" grid="1" gridSize="10" guides="1" tooltips="1" connect="1" arrows="1" fold="1" page="1" pageScale="1" pageWidth="827" pageHeight="1169" math="0" shadow="0">
      <root>
        <mxCell id="0" />
        <mxCell id="1" parent="0" />
        <mxCell id="hWSbdp6Q9My8MZBYcjk1-1" value="Inicio" style="whiteSpace=wrap;strokeWidth=2;" vertex="1" parent="1">
          <mxGeometry x="659" y="20" width="99" height="49" as="geometry" />
        </mxCell>
        <mxCell id="hWSbdp6Q9My8MZBYcjk1-2" value="Cargar DOMContentLoaded" style="whiteSpace=wrap;strokeWidth=2;" vertex="1" parent="1">
          <mxGeometry x="582" y="119" width="252" height="49" as="geometry" />
        </mxCell>
        <mxCell id="hWSbdp6Q9My8MZBYcjk1-3" value="Inicializar Variables" style="whiteSpace=wrap;strokeWidth=2;" vertex="1" parent="1">
          <mxGeometry x="608" y="218" width="200" height="49" as="geometry" />
        </mxCell>
        <mxCell id="hWSbdp6Q9My8MZBYcjk1-4" value="Añadir Listener de Evento para Envío de Formulario" style="whiteSpace=wrap;strokeWidth=2;" vertex="1" parent="1">
          <mxGeometry x="585" y="317" width="247" height="67" as="geometry" />
        </mxCell>
        <mxCell id="hWSbdp6Q9My8MZBYcjk1-5" value="Al Enviar" style="whiteSpace=wrap;strokeWidth=2;" vertex="1" parent="1">
          <mxGeometry x="325" y="442" width="125" height="49" as="geometry" />
        </mxCell>
        <mxCell id="hWSbdp6Q9My8MZBYcjk1-6" value="Prevenir Predeterminado" style="whiteSpace=wrap;strokeWidth=2;" vertex="1" parent="1">
          <mxGeometry x="128" y="550" width="239" height="49" as="geometry" />
        </mxCell>
        <mxCell id="hWSbdp6Q9My8MZBYcjk1-7" value="Capturar Entrada" style="whiteSpace=wrap;strokeWidth=2;" vertex="1" parent="1">
          <mxGeometry x="156" y="716" width="184" height="49" as="geometry" />
        </mxCell>
        <mxCell id="hWSbdp6Q9My8MZBYcjk1-8" value="Si Entrada Válida" style="rhombus;strokeWidth=2;whiteSpace=wrap;" vertex="1" parent="1">
          <mxGeometry x="162" y="905" width="172" height="172" as="geometry" />
        </mxCell>
        <mxCell id="hWSbdp6Q9My8MZBYcjk1-9" value="Añadir Proceso a la Lista" style="whiteSpace=wrap;strokeWidth=2;" vertex="1" parent="1">
          <mxGeometry x="20" y="1150" width="237" height="49" as="geometry" />
        </mxCell>
        <mxCell id="hWSbdp6Q9My8MZBYcjk1-10" value="Renderizar Tabla de Procesos" style="whiteSpace=wrap;strokeWidth=2;" vertex="1" parent="1">
          <mxGeometry x="38" y="1249" width="202" height="67" as="geometry" />
        </mxCell>
        <mxCell id="hWSbdp6Q9My8MZBYcjk1-11" value="Restablecer Formulario" style="whiteSpace=wrap;strokeWidth=2;" vertex="1" parent="1">
          <mxGeometry x="25" y="1463" width="227" height="49" as="geometry" />
        </mxCell>
        <mxCell id="hWSbdp6Q9My8MZBYcjk1-12" value="Fin Si" style="whiteSpace=wrap;strokeWidth=2;" vertex="1" parent="1">
          <mxGeometry x="445" y="1150" width="99" height="49" as="geometry" />
        </mxCell>
        <mxCell id="hWSbdp6Q9My8MZBYcjk1-13" value="Fin Listener de Evento" style="whiteSpace=wrap;strokeWidth=2;" vertex="1" parent="1">
          <mxGeometry x="417" y="550" width="221" height="49" as="geometry" />
        </mxCell>
        <mxCell id="hWSbdp6Q9My8MZBYcjk1-14" value="Añadir Listener de Evento para Botón Calcular" style="whiteSpace=wrap;strokeWidth=2;" vertex="1" parent="1">
          <mxGeometry x="843" y="434" width="247" height="67" as="geometry" />
        </mxCell>
        <mxCell id="hWSbdp6Q9My8MZBYcjk1-15" value="Al Hacer Clic" style="whiteSpace=wrap;strokeWidth=2;" vertex="1" parent="1">
          <mxGeometry x="890" y="550" width="153" height="49" as="geometry" />
        </mxCell>
        <mxCell id="hWSbdp6Q9My8MZBYcjk1-16" value="Si No Hay Procesos" style="rhombus;strokeWidth=2;whiteSpace=wrap;" vertex="1" parent="1">
          <mxGeometry x="602" y="649" width="183" height="183" as="geometry" />
        </mxCell>
        <mxCell id="hWSbdp6Q9My8MZBYcjk1-17" value="Fin" style="whiteSpace=wrap;strokeWidth=2;" vertex="1" parent="1">
          <mxGeometry x="554" y="966" width="82" height="49" as="geometry" />
        </mxCell>
        <mxCell id="hWSbdp6Q9My8MZBYcjk1-18" value="Ordenar Procesos por Tiempo de Llegada y Tiempo de Ejecución" style="whiteSpace=wrap;strokeWidth=2;" vertex="1" parent="1">
          <mxGeometry x="686" y="949" width="213" height="84" as="geometry" />
        </mxCell>
        <mxCell id="hWSbdp6Q9My8MZBYcjk1-19" value="Mientras Existan Procesos" style="whiteSpace=wrap;strokeWidth=2;" vertex="1" parent="1">
          <mxGeometry x="670" y="1150" width="244" height="49" as="geometry" />
        </mxCell>
        <mxCell id="hWSbdp6Q9My8MZBYcjk1-20" value="Filtrar Procesos Disponibles" style="whiteSpace=wrap;strokeWidth=2;" vertex="1" parent="1">
          <mxGeometry x="512" y="1257" width="257" height="49" as="geometry" />
        </mxCell>
        <mxCell id="hWSbdp6Q9My8MZBYcjk1-21" value="Si Hay Procesos Disponibles" style="rhombus;strokeWidth=2;whiteSpace=wrap;" vertex="1" parent="1">
          <mxGeometry x="518" y="1365" width="245" height="245" as="geometry" />
        </mxCell>
        <mxCell id="hWSbdp6Q9My8MZBYcjk1-22" value="Ordenar por Tiempo de Ejecución" style="whiteSpace=wrap;strokeWidth=2;" vertex="1" parent="1">
          <mxGeometry x="388" y="1683" width="227" height="67" as="geometry" />
        </mxCell>
        <mxCell id="hWSbdp6Q9My8MZBYcjk1-23" value="Seleccionar Proceso con el Tiempo de Ejecución Más Corto" style="whiteSpace=wrap;strokeWidth=2;" vertex="1" parent="1">
          <mxGeometry x="376" y="1800" width="250" height="84" as="geometry" />
        </mxCell>
        <mxCell id="hWSbdp6Q9My8MZBYcjk1-24" value="Calcular Tiempo de Inicio, Tiempo de Finalización, Tiempo de Espera, Tiempo de Retorno" style="whiteSpace=wrap;strokeWidth=2;" vertex="1" parent="1">
          <mxGeometry x="375" y="1934" width="252" height="102" as="geometry" />
        </mxCell>
        <mxCell id="hWSbdp6Q9My8MZBYcjk1-25" value="Actualizar Programa" style="whiteSpace=wrap;strokeWidth=2;" vertex="1" parent="1">
          <mxGeometry x="398" y="2086" width="206" height="49" as="geometry" />
        </mxCell>
        <mxCell id="hWSbdp6Q9My8MZBYcjk1-26" value="Almacenar Resultados" style="whiteSpace=wrap;strokeWidth=2;" vertex="1" parent="1">
          <mxGeometry x="392" y="2185" width="218" height="49" as="geometry" />
        </mxCell>
        <mxCell id="hWSbdp6Q9My8MZBYcjk1-27" value="Eliminar Proceso de la Lista" style="whiteSpace=wrap;strokeWidth=2;" vertex="1" parent="1">
          <mxGeometry x="372" y="2284" width="258" height="49" as="geometry" />
        </mxCell>
        <mxCell id="hWSbdp6Q9My8MZBYcjk1-28" value="Añadir Tiempo de Inactividad al Programa" style="whiteSpace=wrap;strokeWidth=2;" vertex="1" parent="1">
          <mxGeometry x="664" y="1683" width="230" height="67" as="geometry" />
        </mxCell>
        <mxCell id="hWSbdp6Q9My8MZBYcjk1-29" value="Incrementar Tiempo" style="whiteSpace=wrap;strokeWidth=2;" vertex="1" parent="1">
          <mxGeometry x="677" y="1817" width="205" height="49" as="geometry" />
        </mxCell>
        <mxCell id="hWSbdp6Q9My8MZBYcjk1-30" value="Calcular Tiempo de Espera Promedio" style="whiteSpace=wrap;strokeWidth=2;" vertex="1" parent="1">
          <mxGeometry x="946" y="1249" width="251" height="67" as="geometry" />
        </mxCell>
        <mxCell id="hWSbdp6Q9My8MZBYcjk1-31" value="Renderizar Tabla de Resultados" style="whiteSpace=wrap;strokeWidth=2;" vertex="1" parent="1">
          <mxGeometry x="971" y="1454" width="202" height="67" as="geometry" />
        </mxCell>
        <mxCell id="hWSbdp6Q9My8MZBYcjk1-32" value="Renderizar Diagrama de Gantt" style="whiteSpace=wrap;strokeWidth=2;" vertex="1" parent="1">
          <mxGeometry x="956" y="1683" width="231" height="67" as="geometry" />
        </mxCell>
        <mxCell id="hWSbdp6Q9My8MZBYcjk1-33" value="Fin Listener de Evento" style="whiteSpace=wrap;strokeWidth=2;" vertex="1" parent="1">
          <mxGeometry x="1382" y="716" width="221" height="49" as="geometry" />
        </mxCell>
        <mxCell id="hWSbdp6Q9My8MZBYcjk1-34" value="Añadir Listener de Evento para Botón Restablecer" style="whiteSpace=wrap;strokeWidth=2;" vertex="1" parent="1">
          <mxGeometry x="1370" y="958" width="247" height="67" as="geometry" />
        </mxCell>
        <mxCell id="hWSbdp6Q9My8MZBYcjk1-35" value="Al Hacer Clic" style="whiteSpace=wrap;strokeWidth=2;" vertex="1" parent="1">
          <mxGeometry x="1416" y="1150" width="153" height="49" as="geometry" />
        </mxCell>
        <mxCell id="hWSbdp6Q9My8MZBYcjk1-36" value="Limpiar Procesos" style="whiteSpace=wrap;strokeWidth=2;" vertex="1" parent="1">
          <mxGeometry x="1277" y="1257" width="181" height="49" as="geometry" />
        </mxCell>
        <mxCell id="hWSbdp6Q9My8MZBYcjk1-37" value="Limpiar Tabla de Procesos" style="whiteSpace=wrap;strokeWidth=2;" vertex="1" parent="1">
          <mxGeometry x="1245" y="1463" width="245" height="49" as="geometry" />
        </mxCell>
        <mxCell id="hWSbdp6Q9My8MZBYcjk1-38" value="Limpiar Tabla de Resultados" style="whiteSpace=wrap;strokeWidth=2;" vertex="1" parent="1">
          <mxGeometry x="1237" y="1692" width="260" height="49" as="geometry" />
        </mxCell>
        <mxCell id="hWSbdp6Q9My8MZBYcjk1-39" value="Limpiar Diagrama de Gantt" style="whiteSpace=wrap;strokeWidth=2;" vertex="1" parent="1">
          <mxGeometry x="1240" y="1817" width="255" height="49" as="geometry" />
        </mxCell>
        <mxCell id="hWSbdp6Q9My8MZBYcjk1-40" value="Restablecer Formulario" style="whiteSpace=wrap;strokeWidth=2;" vertex="1" parent="1">
          <mxGeometry x="1254" y="1960" width="227" height="49" as="geometry" />
        </mxCell>
        <mxCell id="hWSbdp6Q9My8MZBYcjk1-41" value="Fin Listener de Evento" style="whiteSpace=wrap;strokeWidth=2;" vertex="1" parent="1">
          <mxGeometry x="1508" y="1257" width="221" height="49" as="geometry" />
        </mxCell>
        <mxCell id="hWSbdp6Q9My8MZBYcjk1-42" value="Fin" style="whiteSpace=wrap;strokeWidth=2;" vertex="1" parent="1">
          <mxGeometry x="1326" y="2086" width="82" height="49" as="geometry" />
        </mxCell>
        <mxCell id="hWSbdp6Q9My8MZBYcjk1-43" value="" style="curved=1;startArrow=none;endArrow=block;exitX=0.5;exitY=1;entryX=0.5;entryY=0;rounded=0;" edge="1" parent="1" source="hWSbdp6Q9My8MZBYcjk1-1" target="hWSbdp6Q9My8MZBYcjk1-2">
          <mxGeometry relative="1" as="geometry">
            <Array as="points" />
          </mxGeometry>
        </mxCell>
        <mxCell id="hWSbdp6Q9My8MZBYcjk1-44" value="" style="curved=1;startArrow=none;endArrow=block;exitX=0.5;exitY=1;entryX=0.5;entryY=0;rounded=0;" edge="1" parent="1" source="hWSbdp6Q9My8MZBYcjk1-2" target="hWSbdp6Q9My8MZBYcjk1-3">
          <mxGeometry relative="1" as="geometry">
            <Array as="points" />
          </mxGeometry>
        </mxCell>
        <mxCell id="hWSbdp6Q9My8MZBYcjk1-45" value="" style="curved=1;startArrow=none;endArrow=block;exitX=0.5;exitY=1;entryX=0.5;entryY=0;rounded=0;" edge="1" parent="1" source="hWSbdp6Q9My8MZBYcjk1-3" target="hWSbdp6Q9My8MZBYcjk1-4">
          <mxGeometry relative="1" as="geometry">
            <Array as="points" />
          </mxGeometry>
        </mxCell>
        <mxCell id="hWSbdp6Q9My8MZBYcjk1-46" value="" style="curved=1;startArrow=none;endArrow=block;exitX=0;exitY=0.83;entryX=0.5;entryY=0.01;rounded=0;" edge="1" parent="1" source="hWSbdp6Q9My8MZBYcjk1-4" target="hWSbdp6Q9My8MZBYcjk1-5">
          <mxGeometry relative="1" as="geometry">
            <Array as="points">
              <mxPoint x="388" y="409" />
            </Array>
          </mxGeometry>
        </mxCell>
        <mxCell id="hWSbdp6Q9My8MZBYcjk1-47" value="" style="curved=1;startArrow=none;endArrow=block;exitX=0.03;exitY=1.01;entryX=0.5;entryY=0;rounded=0;" edge="1" parent="1" source="hWSbdp6Q9My8MZBYcjk1-5" target="hWSbdp6Q9My8MZBYcjk1-6">
          <mxGeometry relative="1" as="geometry">
            <Array as="points">
              <mxPoint x="248" y="525" />
            </Array>
          </mxGeometry>
        </mxCell>
        <mxCell id="hWSbdp6Q9My8MZBYcjk1-48" value="" style="curved=1;startArrow=none;endArrow=block;exitX=0.5;exitY=1;entryX=0.5;entryY=0;rounded=0;" edge="1" parent="1" source="hWSbdp6Q9My8MZBYcjk1-6" target="hWSbdp6Q9My8MZBYcjk1-7">
          <mxGeometry relative="1" as="geometry">
            <Array as="points" />
          </mxGeometry>
        </mxCell>
        <mxCell id="hWSbdp6Q9My8MZBYcjk1-49" value="" style="curved=1;startArrow=none;endArrow=block;exitX=0.5;exitY=1;entryX=0.5;entryY=0;rounded=0;" edge="1" parent="1" source="hWSbdp6Q9My8MZBYcjk1-7" target="hWSbdp6Q9My8MZBYcjk1-8">
          <mxGeometry relative="1" as="geometry">
            <Array as="points" />
          </mxGeometry>
        </mxCell>
        <mxCell id="hWSbdp6Q9My8MZBYcjk1-50" value="Sí" style="curved=1;startArrow=none;endArrow=block;exitX=0.05;exitY=1;entryX=0.5;entryY=-0.01;rounded=0;" edge="1" parent="1" source="hWSbdp6Q9My8MZBYcjk1-8" target="hWSbdp6Q9My8MZBYcjk1-9">
          <mxGeometry relative="1" as="geometry">
            <Array as="points">
              <mxPoint x="139" y="1113" />
            </Array>
          </mxGeometry>
        </mxCell>
        <mxCell id="hWSbdp6Q9My8MZBYcjk1-51" value="" style="curved=1;startArrow=none;endArrow=block;exitX=0.5;exitY=0.99;entryX=0.5;entryY=0;rounded=0;" edge="1" parent="1" source="hWSbdp6Q9My8MZBYcjk1-9" target="hWSbdp6Q9My8MZBYcjk1-10">
          <mxGeometry relative="1" as="geometry">
            <Array as="points" />
          </mxGeometry>
        </mxCell>
        <mxCell id="hWSbdp6Q9My8MZBYcjk1-52" value="" style="curved=1;startArrow=none;endArrow=block;exitX=0.5;exitY=0.99;entryX=0.5;entryY=0;rounded=0;" edge="1" parent="1" source="hWSbdp6Q9My8MZBYcjk1-10" target="hWSbdp6Q9My8MZBYcjk1-11">
          <mxGeometry relative="1" as="geometry">
            <Array as="points" />
          </mxGeometry>
        </mxCell>
        <mxCell id="hWSbdp6Q9My8MZBYcjk1-53" value="No" style="curved=1;startArrow=none;endArrow=block;exitX=1;exitY=0.75;entryX=0.5;entryY=-0.01;rounded=0;" edge="1" parent="1" source="hWSbdp6Q9My8MZBYcjk1-8" target="hWSbdp6Q9My8MZBYcjk1-12">
          <mxGeometry relative="1" as="geometry">
            <Array as="points">
              <mxPoint x="494" y="1113" />
            </Array>
          </mxGeometry>
        </mxCell>
        <mxCell id="hWSbdp6Q9My8MZBYcjk1-54" value="" style="curved=1;startArrow=none;endArrow=block;exitX=0.97;exitY=1.01;entryX=0.5;entryY=0;rounded=0;" edge="1" parent="1" source="hWSbdp6Q9My8MZBYcjk1-5" target="hWSbdp6Q9My8MZBYcjk1-13">
          <mxGeometry relative="1" as="geometry">
            <Array as="points">
              <mxPoint x="528" y="525" />
            </Array>
          </mxGeometry>
        </mxCell>
        <mxCell id="hWSbdp6Q9My8MZBYcjk1-55" value="" style="curved=1;startArrow=none;endArrow=block;exitX=1;exitY=0.91;entryX=0.5;entryY=-0.01;rounded=0;" edge="1" parent="1" source="hWSbdp6Q9My8MZBYcjk1-4" target="hWSbdp6Q9My8MZBYcjk1-14">
          <mxGeometry relative="1" as="geometry">
            <Array as="points">
              <mxPoint x="967" y="409" />
            </Array>
          </mxGeometry>
        </mxCell>
        <mxCell id="hWSbdp6Q9My8MZBYcjk1-56" value="" style="curved=1;startArrow=none;endArrow=block;exitX=0.5;exitY=0.99;entryX=0.5;entryY=0;rounded=0;" edge="1" parent="1" source="hWSbdp6Q9My8MZBYcjk1-14" target="hWSbdp6Q9My8MZBYcjk1-15">
          <mxGeometry relative="1" as="geometry">
            <Array as="points" />
          </mxGeometry>
        </mxCell>
        <mxCell id="hWSbdp6Q9My8MZBYcjk1-57" value="" style="curved=1;startArrow=none;endArrow=block;exitX=0;exitY=0.79;entryX=0.5;entryY=0;rounded=0;" edge="1" parent="1" source="hWSbdp6Q9My8MZBYcjk1-15" target="hWSbdp6Q9My8MZBYcjk1-16">
          <mxGeometry relative="1" as="geometry">
            <Array as="points">
              <mxPoint x="693" y="624" />
            </Array>
          </mxGeometry>
        </mxCell>
        <mxCell id="hWSbdp6Q9My8MZBYcjk1-58" value="Sí" style="curved=1;startArrow=none;endArrow=block;exitX=0.11;exitY=1;entryX=0.49;entryY=0.01;rounded=0;" edge="1" parent="1" source="hWSbdp6Q9My8MZBYcjk1-16" target="hWSbdp6Q9My8MZBYcjk1-17">
          <mxGeometry relative="1" as="geometry">
            <Array as="points">
              <mxPoint x="595" y="869" />
            </Array>
          </mxGeometry>
        </mxCell>
        <mxCell id="hWSbdp6Q9My8MZBYcjk1-59" value="No" style="curved=1;startArrow=none;endArrow=block;exitX=0.89;exitY=1;entryX=0.5;entryY=0;rounded=0;" edge="1" parent="1" source="hWSbdp6Q9My8MZBYcjk1-16" target="hWSbdp6Q9My8MZBYcjk1-18">
          <mxGeometry relative="1" as="geometry">
            <Array as="points">
              <mxPoint x="792" y="869" />
            </Array>
          </mxGeometry>
        </mxCell>
        <mxCell id="hWSbdp6Q9My8MZBYcjk1-60" value="" style="curved=1;startArrow=none;endArrow=block;exitX=0.5;exitY=1;entryX=0.5;entryY=-0.01;rounded=0;" edge="1" parent="1" source="hWSbdp6Q9My8MZBYcjk1-18" target="hWSbdp6Q9My8MZBYcjk1-19">
          <mxGeometry relative="1" as="geometry">
            <Array as="points" />
          </mxGeometry>
        </mxCell>
        <mxCell id="hWSbdp6Q9My8MZBYcjk1-61" value="" style="curved=1;startArrow=none;endArrow=block;exitX=0.19;exitY=0.99;entryX=0.5;entryY=0.01;rounded=0;" edge="1" parent="1" source="hWSbdp6Q9My8MZBYcjk1-19" target="hWSbdp6Q9My8MZBYcjk1-20">
          <mxGeometry relative="1" as="geometry">
            <Array as="points">
              <mxPoint x="640" y="1224" />
            </Array>
          </mxGeometry>
        </mxCell>
        <mxCell id="hWSbdp6Q9My8MZBYcjk1-62" value="" style="curved=1;startArrow=none;endArrow=block;exitX=0.5;exitY=1.01;entryX=0.5;entryY=0;rounded=0;" edge="1" parent="1" source="hWSbdp6Q9My8MZBYcjk1-20" target="hWSbdp6Q9My8MZBYcjk1-21">
          <mxGeometry relative="1" as="geometry">
            <Array as="points" />
          </mxGeometry>
        </mxCell>
        <mxCell id="hWSbdp6Q9My8MZBYcjk1-63" value="Sí" style="curved=1;startArrow=none;endArrow=block;exitX=0.06;exitY=1;entryX=0.5;entryY=0;rounded=0;" edge="1" parent="1" source="hWSbdp6Q9My8MZBYcjk1-21" target="hWSbdp6Q9My8MZBYcjk1-22">
          <mxGeometry relative="1" as="geometry">
            <Array as="points">
              <mxPoint x="501" y="1646" />
            </Array>
          </mxGeometry>
        </mxCell>
        <mxCell id="hWSbdp6Q9My8MZBYcjk1-64" value="" style="curved=1;startArrow=none;endArrow=block;exitX=0.5;exitY=0.99;entryX=0.5;entryY=-0.01;rounded=0;" edge="1" parent="1" source="hWSbdp6Q9My8MZBYcjk1-22" target="hWSbdp6Q9My8MZBYcjk1-23">
          <mxGeometry relative="1" as="geometry">
            <Array as="points" />
          </mxGeometry>
        </mxCell>
        <mxCell id="hWSbdp6Q9My8MZBYcjk1-65" value="" style="curved=1;startArrow=none;endArrow=block;exitX=0.5;exitY=1;entryX=0.5;entryY=0;rounded=0;" edge="1" parent="1" source="hWSbdp6Q9My8MZBYcjk1-23" target="hWSbdp6Q9My8MZBYcjk1-24">
          <mxGeometry relative="1" as="geometry">
            <Array as="points" />
          </mxGeometry>
        </mxCell>
        <mxCell id="hWSbdp6Q9My8MZBYcjk1-66" value="" style="curved=1;startArrow=none;endArrow=block;exitX=0.5;exitY=1;entryX=0.5;entryY=-0.01;rounded=0;" edge="1" parent="1" source="hWSbdp6Q9My8MZBYcjk1-24" target="hWSbdp6Q9My8MZBYcjk1-25">
          <mxGeometry relative="1" as="geometry">
            <Array as="points" />
          </mxGeometry>
        </mxCell>
        <mxCell id="hWSbdp6Q9My8MZBYcjk1-67" value="" style="curved=1;startArrow=none;endArrow=block;exitX=0.5;exitY=0.99;entryX=0.5;entryY=-0.01;rounded=0;" edge="1" parent="1" source="hWSbdp6Q9My8MZBYcjk1-25" target="hWSbdp6Q9My8MZBYcjk1-26">
          <mxGeometry relative="1" as="geometry">
            <Array as="points" />
          </mxGeometry>
        </mxCell>
        <mxCell id="hWSbdp6Q9My8MZBYcjk1-68" value="" style="curved=1;startArrow=none;endArrow=block;exitX=0.5;exitY=0.99;entryX=0.5;entryY=-0.01;rounded=0;" edge="1" parent="1" source="hWSbdp6Q9My8MZBYcjk1-26" target="hWSbdp6Q9My8MZBYcjk1-27">
          <mxGeometry relative="1" as="geometry">
            <Array as="points" />
          </mxGeometry>
        </mxCell>
        <mxCell id="hWSbdp6Q9My8MZBYcjk1-69" value="No" style="curved=1;startArrow=none;endArrow=block;exitX=0.94;exitY=1;entryX=0.5;entryY=0;rounded=0;" edge="1" parent="1" source="hWSbdp6Q9My8MZBYcjk1-21" target="hWSbdp6Q9My8MZBYcjk1-28">
          <mxGeometry relative="1" as="geometry">
            <Array as="points">
              <mxPoint x="779" y="1646" />
            </Array>
          </mxGeometry>
        </mxCell>
        <mxCell id="hWSbdp6Q9My8MZBYcjk1-70" value="" style="curved=1;startArrow=none;endArrow=block;exitX=0.5;exitY=0.99;entryX=0.5;entryY=0;rounded=0;" edge="1" parent="1" source="hWSbdp6Q9My8MZBYcjk1-28" target="hWSbdp6Q9My8MZBYcjk1-29">
          <mxGeometry relative="1" as="geometry">
            <Array as="points" />
          </mxGeometry>
        </mxCell>
        <mxCell id="hWSbdp6Q9My8MZBYcjk1-71" value="" style="curved=1;startArrow=none;endArrow=block;exitX=1;exitY=0.94;entryX=0.5;entryY=0;rounded=0;" edge="1" parent="1" source="hWSbdp6Q9My8MZBYcjk1-19" target="hWSbdp6Q9My8MZBYcjk1-30">
          <mxGeometry relative="1" as="geometry">
            <Array as="points">
              <mxPoint x="1072" y="1224" />
            </Array>
          </mxGeometry>
        </mxCell>
        <mxCell id="hWSbdp6Q9My8MZBYcjk1-72" value="" style="curved=1;startArrow=none;endArrow=block;exitX=0.5;exitY=0.99;entryX=0.5;entryY=0.01;rounded=0;" edge="1" parent="1" source="hWSbdp6Q9My8MZBYcjk1-30" target="hWSbdp6Q9My8MZBYcjk1-31">
          <mxGeometry relative="1" as="geometry">
            <Array as="points" />
          </mxGeometry>
        </mxCell>
        <mxCell id="hWSbdp6Q9My8MZBYcjk1-73" value="" style="curved=1;startArrow=none;endArrow=block;exitX=0.5;exitY=1;entryX=0.5;entryY=0;rounded=0;" edge="1" parent="1" source="hWSbdp6Q9My8MZBYcjk1-31" target="hWSbdp6Q9My8MZBYcjk1-32">
          <mxGeometry relative="1" as="geometry">
            <Array as="points" />
          </mxGeometry>
        </mxCell>
        <mxCell id="hWSbdp6Q9My8MZBYcjk1-74" value="" style="curved=1;startArrow=none;endArrow=block;exitX=1;exitY=0.65;entryX=0.5;entryY=0;rounded=0;" edge="1" parent="1" source="hWSbdp6Q9My8MZBYcjk1-15" target="hWSbdp6Q9My8MZBYcjk1-33">
          <mxGeometry relative="1" as="geometry">
            <Array as="points">
              <mxPoint x="1493" y="624" />
            </Array>
          </mxGeometry>
        </mxCell>
        <mxCell id="hWSbdp6Q9My8MZBYcjk1-75" value="" style="curved=1;startArrow=none;endArrow=block;exitX=0.5;exitY=1;entryX=0.5;entryY=-0.01;rounded=0;" edge="1" parent="1" source="hWSbdp6Q9My8MZBYcjk1-33" target="hWSbdp6Q9My8MZBYcjk1-34">
          <mxGeometry relative="1" as="geometry">
            <Array as="points" />
          </mxGeometry>
        </mxCell>
        <mxCell id="hWSbdp6Q9My8MZBYcjk1-76" value="" style="curved=1;startArrow=none;endArrow=block;exitX=0.5;exitY=0.99;entryX=0.5;entryY=-0.01;rounded=0;" edge="1" parent="1" source="hWSbdp6Q9My8MZBYcjk1-34" target="hWSbdp6Q9My8MZBYcjk1-35">
          <mxGeometry relative="1" as="geometry">
            <Array as="points" />
          </mxGeometry>
        </mxCell>
        <mxCell id="hWSbdp6Q9My8MZBYcjk1-77" value="" style="curved=1;startArrow=none;endArrow=block;exitX=0.1;exitY=0.99;entryX=0.5;entryY=0.01;rounded=0;" edge="1" parent="1" source="hWSbdp6Q9My8MZBYcjk1-35" target="hWSbdp6Q9My8MZBYcjk1-36">
          <mxGeometry relative="1" as="geometry">
            <Array as="points">
              <mxPoint x="1367" y="1224" />
            </Array>
          </mxGeometry>
        </mxCell>
        <mxCell id="hWSbdp6Q9My8MZBYcjk1-78" value="" style="curved=1;startArrow=none;endArrow=block;exitX=0.5;exitY=1.01;entryX=0.5;entryY=0;rounded=0;" edge="1" parent="1" source="hWSbdp6Q9My8MZBYcjk1-36" target="hWSbdp6Q9My8MZBYcjk1-37">
          <mxGeometry relative="1" as="geometry">
            <Array as="points" />
          </mxGeometry>
        </mxCell>
        <mxCell id="hWSbdp6Q9My8MZBYcjk1-79" value="" style="curved=1;startArrow=none;endArrow=block;exitX=0.5;exitY=1;entryX=0.5;entryY=0;rounded=0;" edge="1" parent="1" source="hWSbdp6Q9My8MZBYcjk1-37" target="hWSbdp6Q9My8MZBYcjk1-38">
          <mxGeometry relative="1" as="geometry">
            <Array as="points" />
          </mxGeometry>
        </mxCell>
        <mxCell id="hWSbdp6Q9My8MZBYcjk1-80" value="" style="curved=1;startArrow=none;endArrow=block;exitX=0.5;exitY=1;entryX=0.5;entryY=0;rounded=0;" edge="1" parent="1" source="hWSbdp6Q9My8MZBYcjk1-38" target="hWSbdp6Q9My8MZBYcjk1-39">
          <mxGeometry relative="1" as="geometry">
            <Array as="points" />
          </mxGeometry>
        </mxCell>
        <mxCell id="hWSbdp6Q9My8MZBYcjk1-81" value="" style="curved=1;startArrow=none;endArrow=block;exitX=0.5;exitY=1;entryX=0.5;entryY=0;rounded=0;" edge="1" parent="1" source="hWSbdp6Q9My8MZBYcjk1-39" target="hWSbdp6Q9My8MZBYcjk1-40">
          <mxGeometry relative="1" as="geometry">
            <Array as="points" />
          </mxGeometry>
        </mxCell>
        <mxCell id="hWSbdp6Q9My8MZBYcjk1-82" value="" style="curved=1;startArrow=none;endArrow=block;exitX=0.91;exitY=0.99;entryX=0.5;entryY=0.01;rounded=0;" edge="1" parent="1" source="hWSbdp6Q9My8MZBYcjk1-35" target="hWSbdp6Q9My8MZBYcjk1-41">
          <mxGeometry relative="1" as="geometry">
            <Array as="points">
              <mxPoint x="1618" y="1224" />
            </Array>
          </mxGeometry>
        </mxCell>
        <mxCell id="hWSbdp6Q9My8MZBYcjk1-83" value="" style="curved=1;startArrow=none;endArrow=block;exitX=0.5;exitY=1;entryX=0.51;entryY=-0.01;rounded=0;" edge="1" parent="1" source="hWSbdp6Q9My8MZBYcjk1-40" target="hWSbdp6Q9My8MZBYcjk1-42">
          <mxGeometry relative="1" as="geometry">
            <Array as="points" />
          </mxGeometry>
        </mxCell>
      </root>
    </mxGraphModel>
  </diagram>
</mxfile>
